<?xml version="1.0" encoding="UTF-8"?>
<svg width="3px" height="1px" viewBox="0 0 80 21" version="1.1" xmlns="http://www.w3.org/2000/svg" xmlns:xlink="http://www.w3.org/1999/xlink">
    <!-- Generator: Sketch 52.5 (67469) - http://www.bohemiancoding.com/sketch -->
    <title>分组 copy 4</title>
    <desc>Created with Sketch.</desc>
    <g id="TB" stroke="none" stroke-width="1" fill="none" fill-rule="evenodd">
        <g id="画板-copy" transform="translate(-450.000000, -890.000000)" fill="#005BAD">
            <g id="分组-copy-4" transform="translate(450.000000, 890.000000)">
                <path d="M58.5629119,14.412274 C59.1916399,15.6008454 61.0560626,15.7312564 61.9459256,15.7312564 L61.9459256,16.8949354 C60.9716791,16.8949354 59.7391155,16.8943092 58.6925401,16.590591 C58.2831468,16.4711389 57.8818943,16.3059726 57.5061605,16.0756791 C56.897002,15.7037025 56.2638904,15.1997495 55.8281957,14.412274 L58.5629119,14.412274 Z M49.2433033,11.8305127 C49.7677652,12.3394755 50.5148493,12.6334873 51.2393894,12.6489863 L51.2393894,13.7575577 C49.7665127,13.7755616 48.2648297,13.7047984 47.1493699,12.592 C45.9886654,12.8877339 45.1705049,12.8994755 45.1705049,12.8994755 L45.1705049,11.7422153 C46.3467084,11.5681252 47.3943796,10.9880861 48.3014638,10.2176751 L45.1705049,10.2176751 L45.1705049,8.97524853 L49.5324618,8.97524853 C49.8260039,8.63051272 50.0990372,8.27356556 50.3478043,7.91567906 L45.1705049,7.91567906 L45.1705049,6.67387867 L51.1216595,6.67387867 C51.2243601,6.54331115 51.6559843,5.74111937 51.7204853,5.61383953 L45.1705049,5.61383953 L45.1705049,4.37141292 L52.3002114,4.37141292 C52.4146536,4.1024501 52.471953,3.94558121 52.471953,3.94558121 L52.9245558,3.94558121 L55.2390763,3.94558121 C55.1913268,4.07881018 55.1354364,4.22096282 55.0754755,4.37141292 L61.9459256,4.37141292 L61.9459256,5.61383953 L54.508274,5.61383953 C54.3357495,5.95466145 54.1464736,6.31098239 53.9401331,6.67387867 L61.9459256,6.67387867 L61.9459256,7.91567906 L53.1864736,7.91567906 C52.9539883,8.27685323 52.7083523,8.63019961 52.4531663,8.97524853 L61.9459256,8.97524853 L61.9459256,10.2176751 L58.8407984,10.2176751 C59.8649863,11.2185362 60.9460039,11.3999843 61.9445166,11.4881252 L61.9445166,12.7408845 C61.2937143,12.7358748 60.7132055,12.6882818 60.0368845,12.5661683 C58.7431076,13.6975969 57.3373933,13.7093386 55.8369628,13.7575577 L55.8369628,12.6453855 C56.8354755,12.6563444 57.6755538,12.2067162 57.9376282,11.7489472 C57.2340665,11.3769706 56.5045166,10.9339178 55.8471389,10.2176751 L51.4328924,10.2176751 C50.7936751,10.919045 50.0926184,11.4175186 49.2433033,11.8305127 Z M49.5728532,16.0756791 C49.1986849,16.3059726 48.8000939,16.4711389 48.3946145,16.590591 C47.3525793,16.8943092 46.1301918,16.8949354 45.1615812,16.8949354 L45.1615812,15.7312564 C46.0472172,15.7312564 47.8991155,15.6008454 48.5222074,14.412274 L51.2393894,14.412274 C50.8445558,15.1316477 50.2623249,15.6518826 49.5728532,16.0756791 Z M43.1908571,4.37063014 L43.1908571,5.95012133 L36.2413464,5.95012133 L36.2413464,9.51677495 L42.7092916,9.51677495 L42.7092916,11.2161879 L36.2413464,11.2161879 L36.2413464,15.248908 L43.2025988,15.248908 L43.2025988,16.8786536 L29.6973151,16.8927436 C27.5550059,16.8947789 26.5597808,15.9133307 26.5597808,13.7403366 L26.5597808,8.3017456 L29.2159061,8.3017456 L29.2159061,14.2491429 C29.2159061,14.8423327 29.5457691,15.248908 30.2690568,15.248908 L33.5648689,15.248908 L33.5648689,5.95012133 L26.5597808,5.95012133 L26.5597808,4.37063014 L43.1908571,4.37063014 Z M64.2172368,5.88389824 L64.2172368,4.37063014 L79.5492133,4.37063014 L79.5492133,5.88389824 L64.2172368,5.88389824 Z M71.8468258,16.8911781 L71.8286654,16.8911781 L67.111953,16.8927436 C64.9699569,16.8939961 63.8779804,15.4594755 64.7639295,13.7403366 L66.5934403,10.1907476 L63.9230685,10.1907476 L63.9230685,8.57368297 L79.8435382,8.57368297 L79.8435382,10.1907476 L69.4106614,10.1907476 L67.2703875,14.5487906 C67.0097221,15.0798278 67.4833033,15.3999843 68.0293699,15.3999843 L75.6461213,15.3999843 C76.1917182,15.3999843 76.65982,15.0826458 76.4049472,14.5487906 L75.1352798,11.8901605 L77.9579804,11.8901605 L78.9114051,13.7403366 C79.7975108,15.4594755 78.7055342,16.8939961 76.5635382,16.8927436 L71.8468258,16.8911781 Z M54.918137,11.2816282 L54.918137,14.4055421 C54.8847906,16.590591 53.852775,16.8949354 52.0888611,16.8949354 C51.7278434,16.8949354 51.3663562,16.8955616 51.0058082,16.8955616 L51.0058082,15.6421761 L51.5592329,15.6421761 C52.0977847,15.6371663 52.2466693,15.4956399 52.2482348,14.9545832 L52.2482348,11.2816282 L54.918137,11.2816282 Z M17.0783405,16.9242512 L17.0783405,17.3279217 C17.0783405,19.1135969 15.6208063,20.2389198 13.9038591,20.5752016 C12.0353659,20.9409159 10.1665597,20.9194677 8.29806654,20.5752016 C6.57751859,20.2580196 5.12264579,19.1135969 5.12264579,17.3279217 L5.12264579,11.3864736 C5.12264579,9.60079843 6.55153033,8.13903718 8.29806654,8.13903718 L13.9038591,8.13903718 C15.6500822,8.13903718 17.0783405,9.60001566 17.0783405,11.3864736 L17.0783405,12.1899178 C17.0783405,12.4757886 16.8569706,12.7090568 16.5855029,12.7090568 L14.879045,12.7090568 C14.6074207,12.7090568 14.3857378,12.4757886 14.3857378,12.1899178 L14.3857378,11.7132055 C14.3857378,11.0176282 13.9342309,10.6562975 13.3808063,10.6562975 L8.81908415,10.6562975 C8.26816438,10.6562975 7.81524853,11.132227 7.81524853,11.7132055 L7.81524853,16.8512094 C7.81524853,17.6217769 8.2755225,17.9661996 8.81908415,18.0579413 C10.1211585,18.2782153 12.0336438,18.3109354 13.3808063,18.0579413 C13.9251507,17.9558669 14.3857378,17.664047 14.3857378,16.8512094 L14.3857378,15.8087045 L14.3857378,14.4073738 L14.637182,14.4073738 L17.0085093,14.4072016 C17.0321196,14.406594 17.0553966,14.4044081 17.0783405,14.4011115 L17.0783405,14.4072016 L17.2043836,14.4072016 C18.9639139,14.4007828 19.1776125,11.9040313 19.1879452,10.6313894 C19.1776125,9.35874755 18.9639139,6.86199609 17.2043836,6.85573386 L14.4890802,6.85573386 L14.4890802,4.7065362 C14.4890802,3.54520548 13.211272,3.17166341 12.0934638,3.05988258 L12.0823483,3.05878669 C11.7272798,3.02778865 11.4083757,3.01886497 11.1896673,3.01667319 L11.1005871,3.01589041 L11.0113503,3.01667319 C10.7926419,3.01886497 10.4738943,3.02763209 10.1188258,3.05878669 L10.1075538,3.05988258 C8.9897456,3.17166341 7.71209393,3.54520548 7.71209393,4.7065362 L7.71209393,6.85072407 L7.71240705,6.85573386 L7.71209393,6.85573386 L5.12172211,6.85573386 L4.99710372,6.85573386 C3.23741683,6.86199609 3.02387476,9.35874755 3.01354207,10.6313894 C3.02168297,11.6347554 3.15663405,13.3989824 4.07561644,14.1036399 L4.07561644,16.5795695 C4.07561644,16.6888454 4.04133072,16.9274364 3.77064579,16.9236791 C1.95240705,16.8984736 0.758669276,15.3122505 0.374637965,13.6768689 C-0.124774951,11.661683 -0.124774951,9.60109589 0.374637965,7.58575342 C0.763052838,5.93174168 1.98043053,4.33847358 3.83452055,4.33847358 L5.12172211,4.33847358 L5.12172211,3.73103718 L5.12172211,3.71318982 C5.12172211,1.96524462 6.55827789,0.782778865 8.20430528,0.375107632 L8.20696673,0.374481409 L8.20712329,0.374481409 C9.18215264,0.119608611 10.1243053,0.000469667319 11.0565949,0.000156555773 L11.1477104,0.000156555773 C12.0787476,0.000626223092 13.020274,0.119921722 13.9940509,0.374481409 L13.9942074,0.374481409 L13.9967123,0.375107632 C15.6427397,0.782778865 17.0792955,1.96524462 17.0792955,3.71318982 L17.0792955,3.73103718 L17.0792955,4.33847358 L18.3671233,4.33847358 C20.2209002,4.33847358 21.4384344,5.93174168 21.8266928,7.58575342 C22.3262622,9.60109589 22.3262622,11.661683 21.8266928,13.6768689 C21.4382779,15.3313503 20.2210568,16.9243053 18.3671233,16.9243053 L17.0783405,16.9242512 Z" id="合并形状"></path>
            </g>
        </g>
    </g>
</svg>
